# xmcd
#
# Track frame offsets:
#   150
#   13195
#   25539
#   39513
#   50894
#   68182
#   81500
#   95299
#   110892
#   125400
#   140842
#   154984
#   169076
#   186389
#   199902
#   214944
#   229429
#   241083
#
# Disc length: 3351 seconds
#
# Revision: 0
# Processed by: cddbd v1.4PL0 Copyright (c) Steve Scherf et al.
# Submitted via: uFREEDB 1.6.0
#
DISCID=100d1512
DTITLE=Kenny Rogers - Best
DYEAR=1900
DGENRE=Country
TTITLE0=Ruby, Don't Take Your Love To Town
TTITLE1=Reuben James
TTITLE2=Sunshine
TTITLE3=Mee and Mobby McGee
TTITLE4=Lady
TTITLE5=Shine On Ruby Mountain
TTITLE6=Love Me Tender
TTITLE7=Unchained Melody
TTITLE8=But You Know I Love You
TTITLE9=My Washington Woman
TTITLE10=You Are So Beautiful
TTITLE11=You Light Up My Life
TTITLE12=I Swear
TTITLE13=I Will Always Love You
TTITLE14=Tell It All Brother
TTITLE15=Hear The Call
TTITLE16=Elvira
TTITLE17=Ticket To Nowhere
EXTD=
EXTT0=
EXTT1=
EXTT2=
EXTT3=
EXTT4=
EXTT5=
EXTT6=
EXTT7=
EXTT8=
EXTT9=
EXTT10=
EXTT11=
EXTT12=
EXTT13=
EXTT14=
EXTT15=
EXTT16=
EXTT17=
PLAYORDER=
